<?xml version="1.0" encoding="UTF-8"?>
<svg id="Layer_2" data-name="Layer 2" xmlns="http://www.w3.org/2000/svg" viewBox="0 0 171.08 53.07">
  <defs>
    <style>
      .cls-1 {
        fill: #231f20;
      }
    </style>
  </defs>
  <g id="Layer_1-2" data-name="Layer 1">
    <g>
      <path class="cls-1" d="M169.59,23.28c-22.19-.33-43.42,3.84-63.08,12.38-7.2,3.13-14.25,6.9-20.96,11.21-6.72-4.31-13.76-8.08-20.96-11.21C44.92,27.12,23.71,22.96,1.5,23.28l-1.5.02.07,5,1.5-.02c21.46-.33,42.01,3.71,61.01,11.97,7.59,3.3,14.96,7.3,21.92,11.91l.69.92.35-.23.35.23.69-.91c6.95-4.6,14.32-8.61,21.92-11.91,19.01-8.26,39.53-12.28,61.01-11.97l1.5.02.07-5-1.5-.02Z"/>
      <path class="cls-1" d="M6.96,14.15c20.08-.36,39.26,4.13,57.02,13.29,7.17,3.7,14.14,8.21,20.7,13.39l.62.49.62-.49c6.56-5.18,13.53-9.69,20.7-13.39,17.75-9.17,36.94-13.66,57.02-13.29l1,.02.05-3-1-.02c-20.57-.35-40.25,4.24-58.44,13.63-6.87,3.55-13.58,7.83-19.94,12.74-6.37-4.91-13.07-9.19-19.94-12.74C47.16,15.38,27.48,10.79,6.9,11.15l-1,.02.05,3,1-.02Z"/>
      <path class="cls-1" d="M12.89,3.02c18.48-.39,36.19,4.49,52.6,14.53,6.63,4.05,13.07,8.98,19.13,14.66l.71.66.66-.66c6.07-5.67,12.51-10.6,19.13-14.66,16.4-10.03,34.1-14.92,52.6-14.53l1,.02.06-3-1-.02c-19.11-.37-37.34,4.64-54.23,14.97-6.29,3.84-12.42,8.48-18.25,13.78-5.83-5.3-11.97-9.93-18.25-13.78C50.19,4.68,31.91-.35,12.83.02l-1,.02.06,3,1-.02Z"/>
    </g>
  </g>
</svg>